<svg id="图层_1" data-name="图层 1" xmlns="http://www.w3.org/2000/svg" viewBox="0 0 230.97 52.42"><title>console</title><path d="M20.45,49.61a10.86,10.86,0,0,1-7.92,2.81,11.14,11.14,0,0,1-8.79-3.67C0.22,44.86,0,39,0,26.21S0.22,7.56,3.74,3.67A11.14,11.14,0,0,1,12.53,0a11.09,11.09,0,0,1,8.14,3c2.38,2.3,3.6,6,3.67,10.23H18.15a9.67,9.67,0,0,0-1.58-5.9,4.79,4.79,0,0,0-4-1.8A4.88,4.88,0,0,0,8.35,7.49C6.55,9.94,6.19,14,6.19,26.21S6.55,42.48,8.35,44.93a4.88,4.88,0,0,0,4.18,1.94,4.83,4.83,0,0,0,4-1.87,9.47,9.47,0,0,0,1.66-5.83h6.19C24.34,43.49,23,47.31,20.45,49.61Z"/><path d="M48.46,49c-1.87,2.52-4.61,3.46-7.92,3.46s-6-.94-7.85-3.46C30.38,46,30,40.76,30,33.2s0.43-12.82,2.74-15.77C34.56,14.91,37.22,14,40.54,14s6,0.94,7.92,3.46c2.3,3,2.66,8.21,2.66,15.77S50.76,46,48.46,49ZM43.85,20.74a4,4,0,0,0-3.31-1.58,3.86,3.86,0,0,0-3.24,1.58c-1.37,1.87-1.51,5.76-1.51,12.46s0.14,10.51,1.51,12.38a3.86,3.86,0,0,0,3.24,1.58,4,4,0,0,0,3.31-1.58c1.37-1.87,1.44-5.69,1.44-12.38S45.22,22.61,43.85,20.74Z"/><path d="M72.86,51.84V24.41c0-3.46-2-5.18-4.46-5.18S64,21,64,24.41V51.84H58.18V14.55h5.62v2.88a7.81,7.81,0,0,1,2.3-2.3,7.55,7.55,0,0,1,4-1.15,7.82,7.82,0,0,1,6.34,2.74c1.51,1.66,2.23,3.67,2.23,7.7V51.84H72.86Z"/><path d="M103,49.47a10.09,10.09,0,0,1-7.63,3,10.2,10.2,0,0,1-7.49-2.88,11.07,11.07,0,0,1-3.17-8.21h5.76A6.23,6.23,0,0,0,92,45.87a4.81,4.81,0,0,0,3.31,1.3,4.61,4.61,0,0,0,3.53-1.37,5.34,5.34,0,0,0,1.44-3.74,6,6,0,0,0-.94-3.38A8.44,8.44,0,0,0,96,36l-4.82-2.45a12.05,12.05,0,0,1-5.11-4.32A9.48,9.48,0,0,1,85,24.34a10.28,10.28,0,0,1,3.1-7.56A10.16,10.16,0,0,1,95.4,14a10,10,0,0,1,7.27,2.66c1.94,1.87,3,4.54,3,8.21H99.94c0-2.16-.43-3.46-1.37-4.46a4.19,4.19,0,0,0-3.17-1.3,4.4,4.4,0,0,0-3.24,1.22,5,5,0,0,0-1.37,3.6,5.49,5.49,0,0,0,.65,2.74,7.05,7.05,0,0,0,3.1,2.45l4.75,2.38a11.89,11.89,0,0,1,5.26,4.25,10.83,10.83,0,0,1,1.58,6A10.72,10.72,0,0,1,103,49.47Z"/><path d="M129.74,49c-1.87,2.52-4.61,3.46-7.92,3.46s-6-.94-7.85-3.46c-2.3-3-2.74-8.21-2.74-15.77s0.43-12.82,2.74-15.77c1.87-2.52,4.54-3.46,7.85-3.46s6,0.94,7.92,3.46c2.3,3,2.66,8.21,2.66,15.77S132,46,129.74,49Zm-4.61-28.23a4,4,0,0,0-3.31-1.58,3.86,3.86,0,0,0-3.24,1.58c-1.37,1.87-1.51,5.76-1.51,12.46s0.14,10.51,1.51,12.38a3.86,3.86,0,0,0,3.24,1.58,4,4,0,0,0,3.31-1.58c1.37-1.87,1.44-5.69,1.44-12.38S126.5,22.61,125.14,20.74Z"/><path d="M142.49,49.54c-2-1.66-3.31-4.25-3.31-8.35V0.58H145V41c0,3.67,1.73,5.62,5.54,5.62v5.26C147.38,51.84,144.72,51.41,142.49,49.54Z"/><path d="M160.49,34.56c0,5.9.29,9.36,1.58,11a4.05,4.05,0,0,0,3.24,1.58,4.3,4.3,0,0,0,3.31-1.44,6.79,6.79,0,0,0,1.3-4.25h5.76a11.83,11.83,0,0,1-3,8.21c-1.8,1.94-4.46,2.74-7.42,2.74A9.25,9.25,0,0,1,158,49.54c-2.88-3-3.31-8.5-3.31-16.35S155,19.8,157.89,16.85A9.66,9.66,0,0,1,165.24,14a9.31,9.31,0,0,1,7.34,2.88c3.1,3.38,3.24,9.72,3.24,17.71H160.49Zm8.06-13.83a4.2,4.2,0,0,0-3.31-1.58A4.05,4.05,0,0,0,162,20.74c-1.15,1.37-1.51,4.39-1.51,9.43H170C170,25.13,169.7,22.11,168.55,20.74Z"/><path d="M195.62,7.92V1.15h6.84V7.92h-6.84Zm0.5,43.92V15.19H202V51.84h-5.83Z"/><path d="M222.41,6.12V51.84h-6.19V6.12h-8.64V0.58H231V6.12h-8.57Z"/></svg>